<svg id="Layer_1" data-name="Layer 1" xmlns="http://www.w3.org/2000/svg" viewBox="0 0 2000 597"><defs><style>.cls-1{fill:#fff;}</style></defs><title>Ping Logo 2020-01</title><path class="cls-1" d="M461.66,13.25C232.33,13.25,199,95.15,199,95.15L135.25,257.33l-25.67,65.83L19.17,550.37a5.81,5.81,0,0,0-.31,2.53h135.8a11.91,11.91,0,0,0,2.47-3.38l80.92-202.69s13.29-33.78,104.65-33.78c228.42,1.69,259.8-80.24,259.8-80.24L657.72,95.15S691,13.25,461.66,13.25M451.32,233.3s-13.19,34.27-103.57,32.6l-53.68-.8c-17.93-.87-32-7.53-29.21-15.9L325.13,97.07S338.31,64.48,428.7,64.48s77.23,32.59,77.23,32.59h1Z"/><path class="cls-1" d="M687.71,549.71,896.17,32c2.84-7.57-11.41-16-29.4-16l-63.52-.85c-19,0-39.85,8.42-42.7,16.84L551.15,550.58a5.79,5.79,0,0,0-.31,2.32H685.76a9.35,9.35,0,0,0,2-3.19"/><path class="cls-1" d="M1427.34,95.15,1246.53,549.52a11,11,0,0,1-2.13,3.38H1109.17a5.4,5.4,0,0,1,.31-2.53L1289.34,95.15s13.32-32.93-78-32.93-104.72,32.93-104.72,32.93L925.8,549.52a9.65,9.65,0,0,1-2.13,3.38H788.48a6,6,0,0,1,.3-2.53L968.64,95.15S1002,13.26,1231.29,13.26s196,81.89,196,81.89"/><path class="cls-1" d="M1841.19,107.2l133.43,1.57,2.84-7.57,2.85-7.62s33.31-81.92-196-81.92-262.67,81.92-262.67,81.92L1367.49,483.75s-32.37,81.07,197,81.07,262.63-81.07,262.63-81.07l54.26-138.49s31.08-82-194.9-82.75l-14.88,41.17c108-10,71.8,43.28,71.8,43.28l-54.24,136.79s-13.34,32.92-104.7,32.92-78-32.92-78-32.92L1659.64,93.58S1673,60.64,1764.3,60.64c70.85,0,78.16,28,77.88,40.56a25.37,25.37,0,0,1-.79,6"/></svg>